<svg width="127" height="52" viewBox="0 0 127 52" fill="none" xmlns="http://www.w3.org/2000/svg">
<rect width="127" height="52" fill="#111827"/>
<path d="M18.748 31H16.658L16.328 30.23C15.734 30.747 14.271 31.132 13.05 31.132C9.893 31.132 7.572 29.977 7.44 27.37C7.44 27.172 7.418 26.908 7.418 26.666C7.418 26.435 7.429 26.138 7.429 26.017C7.517 23.751 9.596 22.211 13.292 22.211C15.987 22.211 18.077 23.08 18.528 25.357C18.561 25.533 18.616 25.995 18.616 26.094H14.601C14.579 25.94 14.535 25.698 14.491 25.566C14.359 25.126 13.941 24.873 13.226 24.873C12.324 24.873 11.851 25.302 11.785 26.05C11.774 26.226 11.763 26.479 11.763 26.677C11.763 26.886 11.774 27.216 11.785 27.37C11.862 28.052 12.269 28.514 13.27 28.514C14.095 28.514 14.59 28.217 14.7 27.612C14.711 27.546 14.722 27.469 14.722 27.392H13.666V26.622H18.693C18.693 26.765 18.704 27.755 18.715 28.239C18.748 29.328 18.748 30.923 18.748 31ZM29.1676 31H20.1586V22.354H24.3276V28.041H29.1676V31ZM41.8935 26.666C41.8935 26.908 41.8935 27.161 41.8825 27.326C41.7725 29.526 40.0455 31.132 35.8545 31.132C31.6635 31.132 29.9365 29.592 29.8375 27.304C29.8265 27.194 29.8155 26.908 29.8155 26.666C29.8155 26.424 29.8265 26.138 29.8375 26.017C29.9365 23.949 31.6635 22.211 35.8545 22.211C40.1005 22.211 41.7615 23.795 41.8825 26.006C41.8825 26.16 41.8935 26.413 41.8935 26.666ZM37.4055 26.677C37.4055 26.457 37.4055 26.127 37.3835 25.951C37.2955 25.313 36.7675 24.895 35.8435 24.895C34.9415 24.895 34.4025 25.291 34.3255 25.951C34.3035 26.193 34.2925 26.435 34.2925 26.688C34.2925 26.897 34.3145 27.304 34.3365 27.469C34.4465 28.129 34.9085 28.459 35.8435 28.459C36.8555 28.459 37.3065 28.052 37.3835 27.381C37.4055 27.216 37.4055 26.875 37.4055 26.677ZM54.3986 28.481C54.3986 28.602 54.3876 28.734 54.3876 28.822C54.2996 30.395 53.0016 31 51.2196 31H43.2006V22.354H50.7796C53.0016 22.354 53.8156 23.256 53.9036 24.257C53.9146 24.345 53.9146 24.455 53.9146 24.565C53.9146 24.664 53.9146 24.752 53.9146 24.829C53.8596 25.676 53.3646 26.27 52.3526 26.369C53.5736 26.534 54.2996 27.128 54.3766 28.162C54.3876 28.25 54.3986 28.371 54.3986 28.481ZM49.7016 25.456C49.7016 25.368 49.6906 25.28 49.6796 25.225C49.6026 24.961 49.3936 24.818 48.9096 24.818H47.2266V26.072H48.8876C49.4046 26.072 49.6136 25.94 49.6796 25.676C49.6906 25.621 49.7016 25.544 49.7016 25.456ZM50.0206 27.821C50.0206 27.744 49.9986 27.667 49.9876 27.612C49.9106 27.326 49.6576 27.161 49.1736 27.161H47.2266V28.503H49.1956C49.6026 28.503 49.9436 28.349 49.9986 28.03C50.0096 27.964 50.0206 27.898 50.0206 27.821Z" fill="white"/>
<path d="M59 20C59 17.2386 61.2386 15 64 15H115C117.761 15 120 17.2386 120 20V33C120 35.7614 117.761 38 115 38H59V20Z" fill="#258A22"/>
<path d="M65.315 25.727H71.452V27.189H65.315V25.727ZM65.485 32H63.785V20.1H72.183V21.579H65.485V32ZM79.8152 32.136C78.9085 32.136 78.0642 31.983 77.2822 31.677C76.5115 31.371 75.8429 30.946 75.2762 30.402C74.7095 29.8467 74.2675 29.2007 73.9502 28.464C73.6329 27.7273 73.4742 26.9227 73.4742 26.05C73.4742 25.1773 73.6329 24.3727 73.9502 23.636C74.2675 22.8993 74.7095 22.259 75.2762 21.715C75.8429 21.1597 76.5115 20.729 77.2822 20.423C78.0529 20.117 78.8972 19.964 79.8152 19.964C80.7219 19.964 81.5549 20.117 82.3142 20.423C83.0849 20.7177 83.7535 21.1427 84.3202 21.698C84.8982 22.242 85.3402 22.8823 85.6462 23.619C85.9635 24.3557 86.1222 25.166 86.1222 26.05C86.1222 26.934 85.9635 27.7443 85.6462 28.481C85.3402 29.2177 84.8982 29.8637 84.3202 30.419C83.7535 30.963 83.0849 31.388 82.3142 31.694C81.5549 31.9887 80.7219 32.136 79.8152 32.136ZM79.8152 30.623C80.4725 30.623 81.0789 30.5097 81.6342 30.283C82.2009 30.0563 82.6882 29.739 83.0962 29.331C83.5155 28.9117 83.8385 28.4243 84.0652 27.869C84.3032 27.3137 84.4222 26.7073 84.4222 26.05C84.4222 25.3927 84.3032 24.7863 84.0652 24.231C83.8385 23.6757 83.5155 23.194 83.0962 22.786C82.6882 22.3667 82.2009 22.0437 81.6342 21.817C81.0789 21.5903 80.4725 21.477 79.8152 21.477C79.1465 21.477 78.5289 21.5903 77.9622 21.817C77.4069 22.0437 76.9195 22.3667 76.5002 22.786C76.0809 23.194 75.7522 23.6757 75.5142 24.231C75.2875 24.7863 75.1742 25.3927 75.1742 26.05C75.1742 26.7073 75.2875 27.3137 75.5142 27.869C75.7522 28.4243 76.0809 28.9117 76.5002 29.331C76.9195 29.739 77.4069 30.0563 77.9622 30.283C78.5289 30.5097 79.1465 30.623 79.8152 30.623ZM88.7205 32V20.1H90.4205V30.521H96.8635V32H88.7205ZM98.8143 32V20.1H100.514V32H98.8143ZM109.449 32.136C108.542 32.136 107.698 31.983 106.916 31.677C106.145 31.371 105.477 30.946 104.91 30.402C104.343 29.8467 103.901 29.2007 103.584 28.464C103.267 27.7273 103.108 26.9227 103.108 26.05C103.108 25.1773 103.267 24.3727 103.584 23.636C103.901 22.8993 104.343 22.259 104.91 21.715C105.477 21.1597 106.145 20.729 106.916 20.423C107.687 20.117 108.531 19.964 109.449 19.964C110.356 19.964 111.189 20.117 111.948 20.423C112.719 20.7177 113.387 21.1427 113.954 21.698C114.532 22.242 114.974 22.8823 115.28 23.619C115.597 24.3557 115.756 25.166 115.756 26.05C115.756 26.934 115.597 27.7443 115.28 28.481C114.974 29.2177 114.532 29.8637 113.954 30.419C113.387 30.963 112.719 31.388 111.948 31.694C111.189 31.9887 110.356 32.136 109.449 32.136ZM109.449 30.623C110.106 30.623 110.713 30.5097 111.268 30.283C111.835 30.0563 112.322 29.739 112.73 29.331C113.149 28.9117 113.472 28.4243 113.699 27.869C113.937 27.3137 114.056 26.7073 114.056 26.05C114.056 25.3927 113.937 24.7863 113.699 24.231C113.472 23.6757 113.149 23.194 112.73 22.786C112.322 22.3667 111.835 22.0437 111.268 21.817C110.713 21.5903 110.106 21.477 109.449 21.477C108.78 21.477 108.163 21.5903 107.596 21.817C107.041 22.0437 106.553 22.3667 106.134 22.786C105.715 23.194 105.386 23.6757 105.148 24.231C104.921 24.7863 104.808 25.3927 104.808 26.05C104.808 26.7073 104.921 27.3137 105.148 27.869C105.386 28.4243 105.715 28.9117 106.134 29.331C106.553 29.739 107.041 30.0563 107.596 30.283C108.163 30.5097 108.78 30.623 109.449 30.623Z" fill="white"/>
</svg>
